<svg height="512pt" viewBox="0 0 512 512" width="512pt" xmlns="http://www.w3.org/2000/svg"><path d="m512 256c0 141.386719-114.613281 256-256 256s-256-114.613281-256-256 114.613281-256 256-256 256 114.613281 256 256zm0 0" fill="#5085fe"/><path d="m403.785156 78.429688c-10.09375-2.707032-261.570312-70.089844-291.171875-78.023438-6.375-1.707031-12.992187 2.113281-14.699219 8.488281-4.25 15.863281-52.609374 196.339844-86.511718 322.871094 32.300781 104.394531 129.589844 180.234375 244.597656 180.234375 15.386719 0 30.457031-1.359375 45.097656-3.960938 27.066406-101.027343 110.4375-412.167968 111.175782-414.914062 1.707031-6.375-2.113282-12.988281-8.488282-14.695312zm0 0" fill="#d4d1da"/><path d="m358.0625 46.601562c0-8.539062-6.921875-15.460937-15.460938-15.460937h-219.460937c-8.558594 0-16.765625 3.402344-22.816406 9.453125l-61.273438 61.273438c-4.121093 4.117187-6.433593 9.703124-6.433593 15.527343v263.707031c43.835937 78.109376 127.4375 130.898438 223.382812 130.898438 36.28125 0 70.789062-7.5625 102.0625-21.175781zm0 0" fill="#ecebed"/><path d="m100.320312 40.59375c6.054688-6.050781 14.261719-9.453125 22.820313-9.453125h104.171875c-54.132812-14.503906-102.6875-27.511719-114.699219-30.734375-6.375-1.707031-12.992187 2.113281-14.699219 8.488281-1.179687 4.402344-5.757812 21.496094-12.484374 46.589844zm0 0" fill="#d4d1da"/><path d="m32.617188 381.101562v-128.511718c-7.332032 27.371094-14.554688 54.3125-21.214844 79.175781 5.355468 17.308594 12.5 33.828125 21.214844 49.347656zm0 0" fill="#bcb7c6"/><path d="m58.234375 82.683594-19.1875 19.183594c-4.117187 4.117187-6.429687 9.703124-6.429687 15.527343v263.707031c7.4375 13.25 16.023437 25.773438 25.617187 37.433594zm0 0" fill="#d4d1da"/><path d="m426.179688 395.210938c-7.457032 0-13.5 6.042968-13.5 13.5 0-7.457032-6.042969-13.5-13.5-13.5-7.457032 0-13.5 6.042968-13.5 13.5v2l18.574218 60.078124c2.21875 8.734376 14.632813 8.734376 16.851563 0l18.574219-60.078124v-2c0-7.457032-6.042969-13.5-13.5-13.5zm0 0" fill="#edd4b0"/><path d="m417.972656 468.503906-5.636718-62.628906.019531-.085938c-1.335938-6.050781-6.722657-10.578124-13.175781-10.578124-7.457032 0-13.5 6.042968-13.5 13.5v2l18.574218 60.078124c1.945313 7.648438 11.703125 8.601563 15.589844 2.851563-1.082031-1.339844-1.789062-3.066406-1.871094-5.136719zm0 0" fill="#e0c096"/><path d="m412.679688 31.140625c-14.914063 0-27 12.089844-27 27v29.039063h54v-29.039063c0-14.910156-12.089844-27-27-27zm0 0" fill="#ff5252"/><path d="m426.179688 34.761719c-3.972657-2.296875-8.582032-3.621094-13.5-3.621094-14.914063 0-27 12.089844-27 27v29.039063h27v-29.039063c0-9.992187 5.429687-18.707031 13.5-23.378906zm0 0" fill="#e74242"/><path d="m385.679688 109.441406v301.269532c0-7.457032 6.042968-13.5 13.5-13.5 7.457031 0 13.5 6.042968 13.5 13.5v-301.269532zm0 0" fill="#ffb456"/><path d="m412.679688 109.441406v301.269532c0-7.457032 6.042968-13.5 13.5-13.5 7.457031 0 13.5 6.042968 13.5 13.5v-301.269532zm0 0" fill="#ffdc67"/><path d="m396.488281 445.671875 7.765625 25.117187c2.21875 8.734376 14.632813 8.734376 16.851563 0l7.765625-25.117187c-9.964844-5.363281-22.179688-5.492187-32.382813 0zm0 0" fill="#484a5e"/><path d="m396.488281 445.671875 6.667969 21.566406c.167969.546875 1.289062 4.246094 1.511719 4.792969 2.695312 6.589844 11.574219 6.9375 15.175781 1.609375-1.082031-1.339844-1.789062-3.066406-1.871094-5.136719l-2.410156-26.769531c-6.476562-.546875-13.117188.730469-19.074219 3.9375zm0 0" fill="#3d4051"/><path d="m313.398438 78.675781h-30c-4.140626 0-7.5-3.359375-7.5-7.5 0-4.144531 3.359374-7.5 7.5-7.5h30c4.140624 0 7.5 3.355469 7.5 7.5 0 4.140625-3.359376 7.5-7.5 7.5zm0 0" fill="#ffb456"/><path d="m151.832031 308.089844h-60c-7.457031 0-13.5-6.042969-13.5-13.5 0-7.453125 6.042969-13.5 13.5-13.5h60c7.453125 0 13.5 6.046875 13.5 13.5 0 7.457031-6.046875 13.5-13.5 13.5zm0 0" fill="#88c116"/><path d="m151.832031 412.210938h-60c-7.457031 0-13.5-6.046876-13.5-13.5 0-7.457032 6.042969-13.5 13.5-13.5h60c7.453125 0 13.5 6.042968 13.5 13.5 0 7.453124-6.046875 13.5-13.5 13.5zm0 0" fill="#7da8ff"/><path d="m121.832031 294.589844c0-7.453125 6.042969-13.5 13.5-13.5h-43.5c-7.457031 0-13.5 6.046875-13.5 13.5 0 7.457031 6.042969 13.5 13.5 13.5h43.5c-7.457031 0-13.5-6.042969-13.5-13.5zm0 0" fill="#61ab17"/><path d="m121.832031 398.710938c0-7.457032 6.042969-13.5 13.5-13.5h-43.5c-7.457031 0-13.5 6.042968-13.5 13.5 0 7.453124 6.042969 13.5 13.5 13.5h43.5c-7.457031 0-13.5-6.046876-13.5-13.5zm0 0" fill="#5085fe"/><g fill="#d4d1da"><path d="m305.714844 361.546875h-80.054688c-4.140625 0-7.5-3.355469-7.5-7.5s3.359375-7.5 7.5-7.5h80.054688c4.140625 0 7.5 3.355469 7.5 7.5s-3.359375 7.5-7.5 7.5zm0 0"/><path d="m305.714844 331.820312h-80.054688c-4.140625 0-7.5-3.359374-7.5-7.5 0-4.144531 3.359375-7.5 7.5-7.5h80.054688c4.140625 0 7.5 3.355469 7.5 7.5 0 4.140626-3.359375 7.5-7.5 7.5zm0 0"/><path d="m305.714844 302.089844h-80.054688c-4.140625 0-7.5-3.355469-7.5-7.5 0-4.140625 3.359375-7.5 7.5-7.5h80.054688c4.140625 0 7.5 3.359375 7.5 7.5 0 4.144531-3.359375 7.5-7.5 7.5zm0 0"/></g><path d="m200.511719 361.546875h-.160157c-4.140624 0-7.5-3.355469-7.5-7.5s3.359376-7.5 7.5-7.5h.160157c4.144531 0 7.5 3.355469 7.5 7.5s-3.355469 7.5-7.5 7.5zm0 0" fill="#bcb7c6"/><path d="m200.511719 331.820312h-.160157c-4.140624 0-7.5-3.359374-7.5-7.5 0-4.144531 3.359376-7.5 7.5-7.5h.160157c4.144531 0 7.5 3.355469 7.5 7.5 0 4.140626-3.355469 7.5-7.5 7.5zm0 0" fill="#bcb7c6"/><path d="m200.511719 302.089844h-.160157c-4.140624 0-7.5-3.355469-7.5-7.5 0-4.140625 3.359376-7.5 7.5-7.5h.160157c4.144531 0 7.5 3.359375 7.5 7.5 0 4.144531-3.355469 7.5-7.5 7.5zm0 0" fill="#bcb7c6"/><path d="m305.714844 466.828125h-80.054688c-4.140625 0-7.5-3.355469-7.5-7.5s3.359375-7.5 7.5-7.5h80.054688c4.140625 0 7.5 3.355469 7.5 7.5s-3.359375 7.5-7.5 7.5zm0 0" fill="#d4d1da"/><path d="m305.714844 437.101562h-80.054688c-4.140625 0-7.5-3.359374-7.5-7.5 0-4.144531 3.359375-7.5 7.5-7.5h80.054688c4.140625 0 7.5 3.355469 7.5 7.5 0 4.140626-3.359375 7.5-7.5 7.5zm0 0" fill="#d4d1da"/><path d="m305.714844 407.371094h-80.054688c-4.140625 0-7.5-3.355469-7.5-7.5 0-4.144532 3.359375-7.5 7.5-7.5h80.054688c4.140625 0 7.5 3.355468 7.5 7.5 0 4.144531-3.359375 7.5-7.5 7.5zm0 0" fill="#d4d1da"/><path d="m200.511719 466.828125h-.160157c-4.140624 0-7.5-3.355469-7.5-7.5s3.359376-7.5 7.5-7.5h.160157c4.144531 0 7.5 3.355469 7.5 7.5s-3.355469 7.5-7.5 7.5zm0 0" fill="#bcb7c6"/><path d="m200.511719 437.101562h-.160157c-4.140624 0-7.5-3.359374-7.5-7.5 0-4.144531 3.359376-7.5 7.5-7.5h.160157c4.144531 0 7.5 3.355469 7.5 7.5 0 4.140626-3.355469 7.5-7.5 7.5zm0 0" fill="#bcb7c6"/><path d="m200.511719 407.371094h-.160157c-4.140624 0-7.5-3.355469-7.5-7.5 0-4.144532 3.359376-7.5 7.5-7.5h.160157c4.144531 0 7.5 3.355468 7.5 7.5 0 4.144531-3.355469 7.5-7.5 7.5zm0 0" fill="#bcb7c6"/><path d="m385.679688 82.902344h54v31.574218h-54zm0 0" fill="#7da8ff"/><path d="m385.679688 82.902344h27v31.574218h-27zm0 0" fill="#5085fe"/><path d="m237.035156 242.074219h-83.390625c-6.597656 0-12-5.398438-12-12v-93.386719c0-6.601562 5.402344-12 12-12h83.390625c6.597656 0 12 5.398438 12 12v93.386719c0 6.601562-5.402344 12-12 12zm0 0" fill="#9dc2fc"/><path d="m172.171875 230.074219v-93.386719c0-6.601562 5.402344-12 12-12h-30.527344c-6.597656 0-12 5.398438-12 12v93.386719c0 6.601562 5.402344 12 12 12h30.527344c-6.597656 0-12-5.398438-12-12zm0 0" fill="#7da8ff"/><path d="m215.398438 167.265625c-6.398438-11.082031-20.566407-14.878906-31.648438-8.480469-11.078125 6.398438-14.875 20.566406-8.476562 31.644532 6.394531 11.082031 20.566406 14.878906 31.644531 8.480468 11.082031-6.398437 14.878906-20.566406 8.480469-31.644531zm0 0" fill="#f9ae85"/><path d="m195.339844 178.851562c-4.285156-7.421874-3.992188-16.230468 0-23.164062-3.9375-.003906-7.929688.992188-11.582032 3.101562-11.082031 6.398438-14.878906 20.566407-8.480468 31.648438 6.394531 11.078125 20.566406 14.875 31.644531 8.476562 3.65625-2.109374 6.511719-5.070312 8.476563-8.480468-7.996094-.007813-15.769532-4.15625-20.058594-11.582032zm0 0" fill="#f59d6b"/><path d="m237.554688 242.074219-5.449219-21.148438c-2.863281-11.128906-12.898438-18.90625-24.390625-18.90625h-24.769532c-11.492187 0-21.523437 7.777344-24.390624 18.90625l-5.445313 21.148438zm0 0" fill="#ff5252"/><path d="m204.910156 202.019531h-21.964844c-11.492187 0-21.523437 7.777344-24.390624 18.902344l-5.445313 21.152344h33.960937l3.257813-21.152344c1.710937-11.125 7.710937-18.902344 14.582031-18.902344zm0 0" fill="#e74242"/><path d="m162.101562 23.984375c0-3.851563 2.164063-7.191406 5.335938-8.886719-27.03125-7.242187-47.578125-12.746094-54.824219-14.691406-6.375-1.707031-12.988281 2.113281-14.699219 8.488281-1.179687 4.402344-5.757812 21.496094-12.480468 46.589844l14.890625-14.890625c6.050781-6.050781 14.261719-9.453125 22.816406-9.453125h41.957031c-1.847656-1.824219-2.996094-4.355469-2.996094-7.15625zm0 0" fill="#bcb7c6"/><path d="m94.3125 108.300781c8.539062 0 15.460938-6.921875 15.460938-15.460937v-58.789063c-3.484376 1.585938-6.695313 3.785157-9.453126 6.542969l-61.273437 61.273438c-1.875 1.875-3.351563 4.066406-4.429687 6.433593zm0 0" fill="#d4d1da"/><path d="m72.761719 68.15625-33.714844 33.710938c-1.875 1.875-3.351563 4.066406-4.429687 6.433593h59.699218c.171875 0 .339844-.023437.511719-.027343-20.320313-.765626-32.0625-22.96875-22.066406-40.117188zm0 0" fill="#bcb7c6"/></svg>